<svg xmlns="http://www.w3.org/2000/svg" xmlns:xlink="http://www.w3.org/1999/xlink" version="1.1" style="enable-background:new 0 0 212.982 212.982;" xml:space="preserve" width="48" height="48"><rect id="backgroundrect" width="100%" height="100%" x="0" y="0" fill="none" stroke="none" class="" style=""/>
















<g class="currentLayer" style=""><title>Layer 1</title><g id="Close" class="" fill-opacity="1" fill="#757575" transform="">
	<path style="fill-rule:evenodd;clip-rule:evenodd;" d="M29.292919158935547,24.126558534801006 l15.75069808959961,-15.75069808959961 c1.4498710632324219,-1.4498710632324219 1.4498710632324219,-3.800570249557495 0,-5.250232696533203 c-1.4498710632324219,-1.4498710632324219 -3.8003625869750977,-1.4498710632324219 -5.250232696533203,0 l-15.75090503692627,15.75090503692627 L8.291568756103516,3.1254162713885307 c-1.4498710632324219,-1.4498710632324219 -3.8003625869750977,-1.4498710632324219 -5.250232696533203,0 c-1.4496634006500244,1.4498710632324219 -1.4496634006500244,3.800570249557495 0,5.250232696533203 l15.75090503692627,15.75069808959961 L3.041334867477417,39.877275697886944 c-1.4496634006500244,1.4498710632324219 -1.4496634006500244,3.800570249557495 0,5.250232696533203 c1.4498710632324219,1.4498710632324219 3.8003625869750977,1.4498710632324219 5.250232696533203,0 l15.75090503692627,-15.75090503692627 l15.75090503692627,15.75090503692627 c1.4496634006500244,1.4498710632324219 3.8003625869750977,1.4498710632324219 5.250232696533203,0 c1.4498710632324219,-1.4498710632324219 1.4498710632324219,-3.8003625869750977 0,-5.250232696533203 L29.292919158935547,24.126558534801006 z" id="svg_1" fill="#757575" transform=""/>
</g><g id="svg_2" class="" transform="">
</g><g id="svg_3" class="" transform="">
</g><g id="svg_4" class="" transform="">
</g><g id="svg_5" class="" transform="">
</g><g id="svg_6" class="" transform="">
</g><g id="svg_7" class="" transform="">
</g><g id="svg_8" class="" transform="">
</g><g id="svg_9" class="" transform="">
</g><g id="svg_10" class="" transform="">
</g><g id="svg_11" class="" transform="">
</g><g id="svg_12" class="" transform="">
</g><g id="svg_13" class="" transform="">
</g><g id="svg_14" class="" transform="">
</g><g id="svg_15" class="" transform="">
</g><g id="svg_16" class="" transform="">
</g></g></svg>